<?xml version="1.0" encoding="utf-8"?><svg viewBox="0 0 1000 1000" xmlns="http://www.w3.org/2000/svg" xmlns:xlink="http://www.w3.org/1999/xlink"><style>:root>svg{display:none}:root>svg:target{display:block}</style><svg viewBox="0 -960 960 960" id="burger" xmlns="http://www.w3.org/2000/svg"><path d="M120-240v-80h720v80H120Zm0-200v-80h720v80H120Zm0-200v-80h720v80H120Z"/></svg><svg viewBox="0 -960 960 960" id="close" xmlns="http://www.w3.org/2000/svg"><path d="m256-200-56-56 224-224-224-224 56-56 224 224 224-224 56 56-224 224 224 224-56 56-224-224-224 224Z"/></svg><svg viewBox="0 -960 960 960" id="phone" xmlns="http://www.w3.org/2000/svg"><path d="M798-120q-125 0-247-54.5T329-329Q229-429 174.5-551T120-798q0-18 12-30t30-12h162q14 0 25 9.5t13 22.5l26 140q2 16-1 27t-11 19l-97 98q20 37 47.5 71.5T387-386q31 31 65 57.5t72 48.5l94-94q9-9 23.5-13.5T670-390l138 28q14 4 23 14.5t9 23.5v162q0 18-12 30t-30 12ZM241-600l66-66-17-94h-89q5 41 14 81t26 79Zm358 358q39 17 79.5 27t81.5 13v-88l-94-19-67 67ZM241-600Zm358 358Z"/></svg><svg style="enable-background:new 0 0 512 512" viewBox="0 0 512 512" xml:space="preserve" id="telegram" xmlns="http://www.w3.org/2000/svg"><linearGradient gradientUnits="userSpaceOnUse" id="da" x1="256" x2="256" y1="0" y2="510.132"><stop offset="0" style="stop-color:#41bce7"/><stop offset="1" style="stop-color:#22a6dc"/></linearGradient><circle cx="256" cy="256" r="256" style="fill:url(#da)"/><path d="m380.6 147.3-45.7 230.5s-6.4 16-24 8.3l-105.5-80.9-38.4-18.5-64.6-21.7s-9.9-3.5-10.9-11.2c-1-7.7 11.2-11.8 11.2-11.8l256.8-100.7c0-.1 21.1-9.4 21.1 6z" style="fill:#fff"/><path d="M197.2 375.2s-3.1-.3-6.9-12.4c-3.8-12.1-23.3-76.1-23.3-76.1l155.1-98.5s9-5.4 8.6 0c0 0 1.6 1-3.2 5.4-4.8 4.5-121.8 109.7-121.8 109.7" style="fill:#d2e4f0"/><path d="m245.8 336.2-41.7 38.1s-3.3 2.5-6.8.9l8-70.7" style="fill:#b5cfe4"/></svg><svg style="enable-background:new 0 0 1000 1000" viewBox="0 0 1000 1000" xml:space="preserve" id="vk" xmlns="http://www.w3.org/2000/svg"><path d="M500 1000C223.9 1000 0 776.1 0 500S223.9 0 500 0s500 223.9 500 500-223.9 500-500 500z" style="fill:#5181b8"/><path d="M819 344.5c4.6-15.5 0-26.8-22.1-26.8H724c-18.5 0-27.1 9.8-31.7 20.6 0 0-37.1 90.4-89.6 149.1-17 17-24.7 22.4-34 22.4-4.6 0-11.3-5.4-11.3-20.9V344.5c0-18.5-5.4-26.8-20.8-26.8H422c-11.6 0-18.6 8.6-18.6 16.8 0 17.6 26.3 21.6 29 71.1V513c0 23.5-4.3 27.8-13.5 27.8-24.7 0-84.8-90.8-120.5-194.7-7-20.2-14-28.3-32.6-28.3h-72.9c-20.8 0-25 9.8-25 20.6 0 19.3 24.7 115.1 115.1 241.8 60.3 86.5 145.1 133.4 222.4 133.4 46.3 0 52.1-10.4 52.1-28.4v-65.4c0-20.8 4.4-25 19.1-25 10.8 0 29.4 5.4 72.6 47.1 49.4 49.4 57.6 71.6 85.4 71.6h72.9c20.8 0 31.2-10.4 25.2-31-6.6-20.5-30.2-50.2-61.5-85.5-17-20.1-42.5-41.7-50.2-52.5-10.8-13.9-7.7-20.1 0-32.4-.1 0 88.7-125.1 98-167.6z" style="fill-rule:evenodd;clip-rule:evenodd;fill:#fff"/></svg><svg style="enable-background:new 0 0 1000 1000" viewBox="0 0 1000 1000" xml:space="preserve" id="whatsapp" xmlns="http://www.w3.org/2000/svg"><path d="M500 1000C223.9 1000 0 776.1 0 500S223.9 0 500 0s500 223.9 500 500-223.9 500-500 500z" style="fill:#25d366"/><path d="M733.9 267.2c-62-62.1-144.6-96.3-232.5-96.4-181.1 0-328.6 147.4-328.6 328.6 0 57.9 15.1 114.5 43.9 164.3L170.1 834l174.2-45.7c48 26.2 102 40 157 40h.1c181.1 0 328.5-147.4 328.6-328.6.1-87.8-34-170.4-96.1-232.5zM501.5 772.8h-.1c-49 0-97.1-13.2-139-38.1l-10-5.9L249 755.9l27.6-100.8-6.5-10.3c-27.3-43.5-41.8-93.7-41.8-145.4.1-150.6 122.6-273.1 273.3-273.1 73 0 141.5 28.5 193.1 80.1 51.6 51.6 80 120.3 79.9 193.2 0 150.7-122.6 273.2-273.1 273.2zm149.8-204.6c-8.2-4.1-48.6-24-56.1-26.7-7.5-2.7-13-4.1-18.5 4.1s-21.2 26.7-26 32.2c-4.8 5.5-9.6 6.2-17.8 2.1-8.2-4.1-34.7-12.8-66-40.8-24.4-21.8-40.9-48.7-45.7-56.9-4.8-8.2-.5-12.7 3.6-16.8 3.7-3.7 8.2-9.6 12.3-14.4 4.1-4.8 5.5-8.2 8.2-13.7 2.7-5.5 1.4-10.3-.7-14.4-2.1-4.1-18.5-44.5-25.3-61-6.7-16-13.4-13.8-18.5-14.1-4.8-.2-10.3-.3-15.7-.3-5.5 0-14.4 2.1-21.9 10.3-7.5 8.2-28.7 28.1-28.7 68.5s29.4 79.5 33.5 84.9c4.1 5.5 57.9 88.4 140.3 124 19.6 8.5 34.9 13.5 46.8 17.3 19.7 6.3 37.6 5.4 51.7 3.3 15.8-2.4 48.6-19.9 55.4-39 6.8-19.2 6.8-35.6 4.8-39-2-3.4-7.5-5.4-15.7-9.6z" style="fill-rule:evenodd;clip-rule:evenodd;fill:#fff"/></svg></svg>